<?xml version="1.0" encoding="UTF-8"?>
<svg xmlns="http://www.w3.org/2000/svg" version="1.1" viewBox="0 0 96 96">
  <!-- Generator: Adobe Illustrator 29.3.1, SVG Export Plug-In . SVG Version: 2.1.0 Build 151)  -->
  <defs>
    <style>
      .st0 {
        fill: none;
      }

      .st1 {
        fill: #030202;
      }

      .st2 {
        fill: #e03131;
      }

      .st3 {
        fill: #2e3191;
      }

      .st4 {
        fill: #ca3333;
      }

      .st5 {
        fill: #fefefe;
      }
    </style>
  </defs>
  <g id="Layer_2">
    <rect class="st2" x="12.12" y=".17" width="71.75" height="95.67"/>
    <rect class="st5" x="16.39" y="4.05" width="63.23" height="87.89"/>
  </g>
  <g id="Layer_1">
    <g>
      <g>
        <path class="st3" d="M75.95,7.96v79.93H19.9v-8.5l1.04,1.71,1.4,1.12.07,1.94c8.01-.03,16.03.03,24.04,0,5.15-.02,10.38-.17,15.52-.16,3.33,0,6.68-.11,9.99.3v-19.31c0-.17.53-1.52.61-1.92,2.21-10.53,2.23-20.1-.18-30.58-.06-.28-.43-1.14-.43-1.21V11.69H22.41s-.07,1.94-.07,1.94l-1.19.89-1.25,1.94V7.96h56.06Z"/>
        <path class="st3" d="M19.9,18.4l1.56,2.23c.71.6,1.58.87,2.45,1.14v52.31s-2.36,1.07-2.36,1.07l-1.64,2V18.4Z"/>
        <polygon class="st5" points="75.95 7.96 76.1 7.96 76.1 88.19 19.9 88.19 19.9 88.04 75.95 87.89 75.95 7.96"/>
        <polygon class="st1" points="75.95 87.89 19.9 88.04 19.9 87.89 75.95 87.89"/>
        <g>
          <path class="st4" d="M22.86,83.72v-1.19c2.79.77,5.33-1.02,5.71-3.89h9.82c.45,6.57,8.76,4.39,12.57,2.32,15.42-8.37,17.75-32.84,13.2-48.06-2.59-8.68-10.34-19.1-20.07-19.58-3.25-.16-4.86.88-5.79,4.04h-9.82c-.08-2.98-2.84-4.78-5.62-4.04v-1.19s24.33.15,24.33.15c13.43,1.12,20.69,6.48,24.52,19.57,3.21,10.98,2.96,28.84-2.68,38.99-5.11,9.21-12.98,12.44-23.17,12.88h-23.01Z"/>
          <rect class="st4" x="28.48" y="17.8" width="9.91" height="60.1"/>
          <g>
            <path class="st5" d="M71.37,12.14v9.1h-4.07c-.92-1.02-1.74-2.26-2.81-3.13-.24-.19-.61-.2-.67-.45h4.88v-.45h-5.55c-.08,0-.67-.46-.67-.52v-4.55h8.87Z"/>
            <path class="st5" d="M52.88,17.8v3.43h-7.84c1.14-.87,1.75-1.99,1.92-3.43h5.92Z"/>
            <path class="st5" d="M52.88,17.35h-5.84l-.2-.25c-.07-1.15-.69-2.33-1.65-2.96,2.71-.15,5.73,1.4,7.69,3.21Z"/>
            <path class="st5" d="M43.27,13.78v3.58h-4.29c.04-2.22,2.12-3.89,4.29-3.58Z"/>
            <path class="st5" d="M43.27,17.8v3.36c-.26.35-.7.23-1.07.18-1.77-.22-3.2-1.73-3.22-3.54h4.29Z"/>
            <path class="st5" d="M28.03,17.35h-3.55v-3.73c1.86.15,3.56,1.78,3.55,3.73Z"/>
            <path class="st5" d="M23.89,17.35h-3.4c-.07-1.45.88-2.83,2.18-3.4.21-.09,1.22-.51,1.22-.11v3.5Z"/>
            <path class="st5" d="M28.03,17.8c-.21,1.91-1.69,3.23-3.55,3.43v-3.43h3.55Z"/>
            <path class="st5" d="M23.89,17.8v3.43c-1.78-.14-3.29-1.62-3.4-3.43h3.4Z"/>
            <path class="st5" d="M46.52,17.35h-2.66v-3.43c1.43.41,2.68,1.87,2.66,3.43Z"/>
            <path class="st5" d="M46.52,17.8c.48.49-1.61,3.64-2.66,3.28v-3.28h2.66Z"/>
          </g>
          <g>
            <path class="st1" d="M19.9,16.46l1.25-1.94s0,0,0,0l1.18-.89s0,0,0,0l.07-1.94s0,0,0,0h49.54s0,0,0,0v19.61c0,.07.37.93.43,1.21,2.41,10.48,2.39,20.05.18,30.58-.08.4-.61,1.75-.61,1.92v19.31s0,0,0,0c-3.31-.42-6.65-.3-9.99-.3-5.14,0-10.36.15-15.52.16-8.01.03-16.03-.03-24.04,0,0,0,0,0,0,0l-.07-1.94s0,0,0,0l-1.4-1.12s0,0,0,0l-1.04-1.71s0,0,0,0v-2.24s0,0,0,0l1.64-2s0,0,0,0l2.36-1.07s0,0,0,0V21.77s0,0,0,0c-.87-.26-1.73-.54-2.44-1.14,0,0,0,0,0,0l-1.56-2.23s0,0,0,0v-1.94s0,0,0,0ZM22.86,83.72h23.01c10.19-.44,18.05-3.66,23.17-12.87,5.64-10.15,5.89-28.01,2.68-38.99-3.83-13.09-11.09-18.44-24.52-19.57l-24.33-.15v1.19c2.78-.75,5.54,1.06,5.62,4.03h9.82c.93-3.15,2.54-4.19,5.79-4.03,9.73.48,17.48,10.89,20.07,19.58,4.55,15.23,2.22,39.7-13.2,48.06-3.81,2.07-12.13,4.25-12.57-2.32h-9.82c-.38,2.86-2.91,4.65-5.7,3.88v1.19ZM53.03,12.14h-3.7l3.33.6h.37s0-.6,0-.6ZM71.37,12.14h-8.87v4.55c0,.06.59.52.67.52h5.55v.45h-4.88c.06.25.43.25.67.45,1.07.88,1.89,2.12,2.81,3.13h4.07v-9.1ZM23.89,17.35v-3.5c0-.4-1.02.02-1.22.11-1.29.57-2.25,1.95-2.18,3.4h3.4ZM28.03,17.35c.01-1.95-1.69-3.58-3.55-3.73v3.73h3.55ZM43.27,13.78c-2.17-.31-4.25,1.36-4.29,3.58h4.29v-3.58ZM46.52,17.35c.02-1.56-1.23-3.02-2.66-3.43v3.43h2.66ZM52.88,17.35c-1.96-1.81-4.98-3.36-7.69-3.21.96.63,1.59,1.81,1.65,2.96l.2.25h5.84ZM23.89,17.8h-3.4c.11,1.81,1.62,3.29,3.4,3.43v-3.43ZM28.03,17.8h-3.55v3.43c1.86-.2,3.34-1.52,3.55-3.43ZM28.48,17.8v60.1h9.91V17.8h-9.91ZM43.27,17.8h-4.29c.01,1.81,1.45,3.32,3.22,3.54.37.05.81.17,1.07-.18v-3.36ZM46.52,17.8h-2.66v3.28c1.06.36,3.14-2.79,2.66-3.28ZM52.88,17.8h-5.92c-.18,1.44-.78,2.56-1.92,3.43h7.84v-3.43ZM43.27,21.83c-1.94.2-3.41-.84-4.44-2.39v10.29h4.44v-7.9ZM28.03,19.74c-.75.28-1.11,1.08-1.88,1.46-.53.27-1.03.33-1.59.46l-.09,52.41c.58.32,1.14.29,1.77.63.74.4,1.21,1.12,1.78,1.71V19.74ZM62.49,29.73c-1.23-2.97-2.93-5.72-4.95-8.2h-4.51v8.2h9.47ZM43.27,30.18h-4.44v8.35h4.44v-8.35ZM43.86,30.18v8.35h8.87v-8.35h-8.87ZM64.86,38.53c-.23-2.45-.9-5.09-1.76-7.4-.07-.19-.03-.46-.31-.5v7.9h2.07ZM43.27,38.98h-4.44v8.05h4.44v-8.05ZM62.35,38.98h-9.32v8.05h9.32v-8.05ZM38.83,47.48v8.35h4.44v-8.35h-4.44ZM52.44,47.48h-8.58v8.35h8.58v-8.35ZM62.35,47.48h-9.32v8.35h9.32v-8.35ZM65.6,47.48h-2.66v8.35h2.22c.41-2.76.48-5.56.44-8.35ZM43.27,56.43h-4.44v20.13c1.12-1.42,2.57-2.3,4.44-2.09v-18.04ZM62.35,56.43h-18.49v18.12c.58.44,1.26.64,1.78,1.19.61.63.79,1.45,1.27,2.15l7.49-.02c.84-.22,3.53-3.59,4.16-4.45s3.78-5.7,3.78-6.47v-10.51ZM65.01,56.43h-2.07v8.95l.96-2.83c.39-2.03,1.09-4.03,1.11-6.12ZM71.37,83.42v-16.4l-1.99,4.18c-2.37,4.13-5.73,7.73-9.93,9.97l-6.42,2.25h18.34ZM27.88,77.9c-.21-1.88-1.65-2.98-3.4-3.28v3.28h3.4ZM23.89,74.77c-1.78-.08-3.05,1.48-3.4,3.13h3.4v-3.13ZM43.27,74.92c-1.97-.2-3.96.97-4.29,2.98h4.29v-2.98ZM43.86,75.22v2.68h2.37c-.19-1.23-1.15-2.39-2.37-2.68ZM23.89,78.65h-3.4c.15,1.77,1.54,3.5,3.4,3.43v-3.43ZM27.88,78.65h-3.4v3.43c1.78.03,3.46-1.65,3.4-3.43ZM43.27,78.65h-4.44c0,2.47,2.08,4.02,4.44,3.73v-3.73ZM46.37,78.65h-2.51v3.58c1.5-.42,2.54-2.03,2.51-3.58ZM53.47,78.65h-6.66c.05,1.45-.73,2.88-1.92,3.65.7.16,1.52-.11,2.22-.3,2.24-.62,4.61-1.81,6.36-3.35Z"/>
            <path class="st5" d="M62.35,56.43v10.51c0,.77-3.13,5.58-3.78,6.47s-3.32,4.23-4.16,4.45l-7.49.02c-.48-.69-.66-1.51-1.27-2.15-.52-.54-1.2-.75-1.78-1.19v-18.12h18.49Z"/>
            <path class="st5" d="M71.37,83.42h-18.34l6.42-2.25c4.2-2.24,7.56-5.85,9.93-9.97l1.99-4.18v16.4Z"/>
            <path class="st5" d="M43.27,56.43v18.04c-1.87-.22-3.32.67-4.44,2.09v-20.13h4.44Z"/>
            <rect class="st5" x="53.03" y="47.48" width="9.32" height="8.35"/>
            <rect class="st5" x="53.03" y="38.98" width="9.32" height="8.05"/>
            <rect class="st5" x="43.86" y="30.18" width="8.87" height="8.35"/>
            <rect class="st5" x="43.86" y="47.48" width="8.58" height="8.35"/>
            <path class="st5" d="M62.49,29.73h-9.47v-8.2h4.51c2.03,2.48,3.73,5.23,4.95,8.2Z"/>
            <path class="st5" d="M43.27,21.83v7.9h-4.44v-10.29c1.03,1.55,2.5,2.58,4.44,2.39Z"/>
            <rect class="st5" x="38.83" y="30.18" width="4.44" height="8.35"/>
            <rect class="st5" x="38.83" y="47.48" width="4.44" height="8.35"/>
            <rect class="st5" x="38.83" y="38.98" width="4.44" height="8.05"/>
            <path class="st5" d="M65.6,47.48c.03,2.79-.03,5.59-.44,8.35h-2.22v-8.35h2.66Z"/>
            <path class="st5" d="M53.47,78.65c-1.75,1.54-4.12,2.74-6.36,3.35-.69.19-1.52.46-2.22.3,1.2-.77,1.97-2.2,1.92-3.65h6.66Z"/>
            <path class="st5" d="M43.27,78.65v3.73c-2.36.29-4.44-1.26-4.44-3.73h4.44Z"/>
            <path class="st5" d="M65.01,56.43c-.01,2.08-.72,4.09-1.11,6.12l-.96,2.83v-8.95h2.07Z"/>
            <path class="st5" d="M64.86,38.53h-2.07v-7.9c.28.05.24.31.31.5.86,2.31,1.53,4.95,1.76,7.4Z"/>
            <path class="st5" d="M43.27,74.92v2.98h-4.29c.33-2.01,2.32-3.19,4.29-2.98Z"/>
            <path class="st5" d="M46.37,78.65c.02,1.55-1.02,3.16-2.51,3.58v-3.58h2.51Z"/>
            <path class="st5" d="M43.86,75.22c1.21.29,2.18,1.46,2.37,2.68h-2.37v-2.68Z"/>
          </g>
          <polygon class="st5" points="53.03 12.14 53.03 12.73 52.66 12.74 49.33 12.14 53.03 12.14"/>
          <g>
            <path class="st5" d="M28.03,19.74v56.67c-.58-.58-1.05-1.3-1.78-1.71-.63-.34-1.19-.31-1.77-.63l.09-52.41c.56-.13,1.06-.19,1.59-.46.76-.38,1.12-1.19,1.88-1.46Z"/>
            <path class="st5" d="M27.88,78.65c.06,1.78-1.62,3.46-3.4,3.43v-3.43h3.4Z"/>
            <path class="st5" d="M23.89,78.65v3.43c-1.86.07-3.25-1.66-3.4-3.43h3.4Z"/>
            <path class="st5" d="M27.88,77.9h-3.4v-3.28c1.75.3,3.2,1.4,3.4,3.28Z"/>
            <path class="st5" d="M23.89,74.77v3.13h-3.4c.35-1.65,1.62-3.21,3.4-3.13Z"/>
          </g>
        </g>
      </g>
      <rect class="st0" x="19.9" y="7.81" width="56.2" height="80.12"/>
    </g>
  </g>
</svg>