<svg width="48" height="43" viewBox="0 0 48 43" fill="none" xmlns="http://www.w3.org/2000/svg">
<path d="M6.85736 17.106H41.0394C41.5515 17.1086 42.0576 16.9962 42.5205 16.7771C42.9833 16.558 43.3911 16.2378 43.7137 15.84C44.0363 15.4423 44.2655 14.9773 44.3844 14.4792C44.5033 13.981 44.5089 13.4626 44.4007 12.9621C42.812 5.45253 34.2119 0 23.9484 0C13.6848 0 5.08475 5.45253 3.49603 12.9621C3.38784 13.4626 3.39341 13.981 3.51231 14.4792C3.6312 14.9773 3.86041 15.4423 4.18301 15.84C4.50562 16.2378 4.91339 16.558 5.37625 16.7771C5.83912 16.9962 6.34526 17.1086 6.85736 17.106ZM23.9484 3.4212C32.4629 3.4212 39.8163 7.82812 41.0394 13.6848H6.85736L6.84239 13.6698C8.08043 7.82812 15.4339 3.4212 23.9484 3.4212ZM45.6002 27.4722L36.8056 30.6796L28.8663 27.4914C28.4586 27.3284 28.0039 27.3284 27.5962 27.4914L19.6847 30.6582L11.7604 27.4914C11.3702 27.3356 10.9364 27.3287 10.5416 27.4722L1.13327 30.8934C0.735634 31.0684 0.419494 31.3882 0.249017 31.7878C0.0785404 32.1874 0.0665019 32.6369 0.215345 33.0451C0.364187 33.4532 0.662759 33.7895 1.05046 33.9855C1.43815 34.1816 1.88593 34.2228 2.30289 34.1008L5.13179 33.0765V34.212C5.13179 36.4803 6.03291 38.6558 7.6369 40.2598C9.2409 41.8638 11.4164 42.7649 13.6848 42.7649H34.2119C36.4803 42.7649 38.6558 41.8638 40.2598 40.2598C41.8638 38.6558 42.7649 36.4803 42.7649 34.212V32.1443L46.7699 30.6881C46.9944 30.6224 47.2031 30.5113 47.3831 30.3617C47.563 30.2121 47.7103 30.0272 47.8159 29.8184C47.9215 29.6095 47.9831 29.3813 47.997 29.1477C48.0109 28.9141 47.9766 28.6802 47.8965 28.4603C47.8163 28.2405 47.6919 28.0395 47.5309 27.8696C47.37 27.6998 47.1759 27.5648 46.9606 27.473C46.7454 27.3812 46.5136 27.3345 46.2796 27.3358C46.0456 27.3372 45.8144 27.3865 45.6002 27.4808V27.4722ZM39.3437 34.212C39.3437 35.573 38.8031 36.8783 37.8407 37.8407C36.8783 38.8031 35.573 39.3437 34.2119 39.3437H13.6848C12.3237 39.3437 11.0185 38.8031 10.0561 37.8407C9.09366 36.8783 8.55299 35.573 8.55299 34.212V31.8342L11.0911 30.9105L19.0304 34.0901C19.4381 34.2531 19.8928 34.2531 20.3005 34.0901L28.212 30.9233L36.1235 34.0901C36.5137 34.2459 36.9475 34.2528 37.3423 34.1093L39.3245 33.3887L39.3437 34.212ZM0 22.2378C0 21.7841 0.180223 21.349 0.501022 21.0282C0.821822 20.7074 1.25692 20.5272 1.7106 20.5272H46.1861C46.6398 20.5272 47.0749 20.7074 47.3957 21.0282C47.7165 21.349 47.8967 21.7841 47.8967 22.2378C47.8967 22.6914 47.7165 23.1265 47.3957 23.4473C47.0749 23.7681 46.6398 23.9484 46.1861 23.9484H1.7106C1.25692 23.9484 0.821822 23.7681 0.501022 23.4473C0.180223 23.1265 0 22.6914 0 22.2378Z" fill="#E03131"/>
</svg>
